HIERARCHY
ROOT Hips
{
    OFFSET 0.000000 0.000000 0.000000
    CHANNELS 6 Xposition Yposition Zposition Zrotation Xrotation Yrotation
    JOINT Spine
    {
        OFFSET 0.000001 8.252734 -0.000004
        CHANNELS 3 Zrotation Xrotation Yrotation
        JOINT Spine1
        {
            OFFSET 0.000024 21.307178 -0.000033
            CHANNELS 3 Zrotation Xrotation Yrotation
            JOINT Neck
            {
                OFFSET -0.000004 22.341335 -0.000003
                CHANNELS 3 Zrotation Xrotation Yrotation
                JOINT Head
                {
                    OFFSET -0.000002 14.327763 1.902230
                    CHANNELS 3 Zrotation Xrotation Yrotation
                    End Site
                    {
                        OFFSET 0.000000 19.022141 0.000000
                    }
                }
            }
            JOINT LeftShoulder
            {
                OFFSET 3.797836 16.121193 -0.677311
                CHANNELS 3 Zrotation Xrotation Yrotation
                JOINT LeftArm
                {
                    OFFSET 11.576593 -0.000003 -0.000016
                    CHANNELS 3 Zrotation Xrotation Yrotation
                    JOINT LeftForeArm
                    {
                        OFFSET 29.906404 0.000012 0.000004
                        CHANNELS 3 Zrotation Xrotation Yrotation
                        JOINT LeftHand
                        {
                            OFFSET 24.318317 0.000009 -0.000010
                            CHANNELS 3 Zrotation Xrotation Yrotation
                            JOINT LeftHandThumb1
                            {
                                OFFSET 1.987825 -2.258880 3.162448
                                CHANNELS 3 Zrotation Xrotation Yrotation
                                JOINT LeftHandThumb2
                                {
                                    OFFSET 3.002311 0.000002 0.000008
                                    CHANNELS 3 Zrotation Xrotation Yrotation
                                    JOINT LeftHandThumb3
                                    {
                                        OFFSET 2.566073 -0.000012 -0.000014
                                        CHANNELS 3 Zrotation Xrotation Yrotation
                                        End Site
                                        {
                                            OFFSET 2.440626 0.000000 0.000000
                                        }
                                    }
                                }
                            }
                            JOINT LeftHandIndex1
                            {
                                OFFSET 8.131962 0.000001 3.162429
                                CHANNELS 3 Zrotation Xrotation Yrotation
                                JOINT LeftHandIndex2
                                {
                                    OFFSET 4.517762 0.000003 0.000013
                                    CHANNELS 3 Zrotation Xrotation Yrotation
                                    JOINT LeftHandIndex3
                                    {
                                        OFFSET 2.258869 -0.000006 -0.000014
                                        CHANNELS 3 Zrotation Xrotation Yrotation
                                        End Site
                                        {
                                            OFFSET 2.148437 0.000000 0.000000
                                        }
                                    }
                                }
                            }
                            JOINT LeftHandMiddle1
                            {
                                OFFSET 8.131949 0.000001 1.048099
                                CHANNELS 3 Zrotation Xrotation Yrotation
                                JOINT LeftHandMiddle2
                                {
                                    OFFSET 4.969545 0.000001 0.000017
                                    CHANNELS 3 Zrotation Xrotation Yrotation
                                    JOINT LeftHandMiddle3
                                    {
                                        OFFSET 2.710648 0.000001 -0.000008
                                        CHANNELS 3 Zrotation Xrotation Yrotation
                                        End Site
                                        {
                                            OFFSET 2.578118 0.000000 0.000000
                                        }
                                    }
                                }
                            }
                            JOINT LeftHandRing1
                            {
                                OFFSET 7.680187 0.000003 -1.048116
                                CHANNELS 3 Zrotation Xrotation Yrotation
                                JOINT LeftHandRing2
                                {
                                    OFFSET 4.517762 0.000000 0.000013
                                    CHANNELS 3 Zrotation Xrotation Yrotation
                                    JOINT LeftHandRing3
                                    {
                                        OFFSET 2.258869 -0.000004 -0.000015
                                        CHANNELS 3 Zrotation Xrotation Yrotation
                                        End Site
                                        {
                                            OFFSET 2.148437 0.000000 0.000000
                                        }
                                    }
                                }
                            }
                            JOINT LeftHandPinky1
                            {
                                OFFSET 7.228425 0.000002 -3.162411
                                CHANNELS 3 Zrotation Xrotation Yrotation
                                JOINT LeftHandPinky2
                                {
                                    OFFSET 3.614209 0.000005 0.000002
                                    CHANNELS 3 Zrotation Xrotation Yrotation
                                    JOINT LeftHandPinky3
                                    {
                                        OFFSET 1.807094 0.000009 -0.000020
                                        CHANNELS 3 Zrotation Xrotation Yrotation
                                        End Site
                                        {
                                            OFFSET 1.718745 0.000000 0.000000
                                        }
                                    }
                                }
                            }
                        }
                    }
                }
            }
            JOINT RightShoulder
            {
                OFFSET -3.797818 16.121193 -0.677313
                CHANNELS 3 Zrotation Xrotation Yrotation
                JOINT RightArm
                {
                    OFFSET -11.576586 0.000001 0.000006
                    CHANNELS 3 Zrotation Xrotation Yrotation
                    JOINT RightForeArm
                    {
                        OFFSET -29.906404 0.000003 -0.000001
                        CHANNELS 3 Zrotation Xrotation Yrotation
                        JOINT RightHand
                        {
                            OFFSET -24.318317 0.000003 -0.000004
                            CHANNELS 3 Zrotation Xrotation Yrotation
                            JOINT RightHandThumb1
                            {
                                OFFSET -1.987823 -2.258867 3.162436
                                CHANNELS 3 Zrotation Xrotation Yrotation
                                JOINT RightHandThumb2
                                {
                                    OFFSET -3.002313 0.000005 -0.000008
                                    CHANNELS 3 Zrotation Xrotation Yrotation
                                    JOINT RightHandThumb3
                                    {
                                        OFFSET -2.566091 0.000008 -0.000004
                                        CHANNELS 3 Zrotation Xrotation Yrotation
                                        End Site
                                        {
                                            OFFSET -2.440626 0.000000 0.000000
                                        }
                                    }
                                }
                            }
                            JOINT RightHandIndex1
                            {
                                OFFSET -8.131968 0.000009 3.162433
                                CHANNELS 3 Zrotation Xrotation Yrotation
                                JOINT RightHandIndex2
                                {
                                    OFFSET -4.517759 0.000001 -0.000000
                                    CHANNELS 3 Zrotation Xrotation Yrotation
                                    JOINT RightHandIndex3
                                    {
                                        OFFSET -2.258879 0.000001 0.000001
                                        CHANNELS 3 Zrotation Xrotation Yrotation
                                        End Site
                                        {
                                            OFFSET -2.148437 0.000000 0.000000
                                        }
                                    }
                                }
                            }
                            JOINT RightHandMiddle1
                            {
                                OFFSET -8.131955 -0.000015 1.048114
                                CHANNELS 3 Zrotation Xrotation Yrotation
                                JOINT RightHandMiddle2
                                {
                                    OFFSET -4.969545 0.000016 0.000007
                                    CHANNELS 3 Zrotation Xrotation Yrotation
                                    JOINT RightHandMiddle3
                                    {
                                        OFFSET -2.710665 0.000015 0.000008
                                        CHANNELS 3 Zrotation Xrotation Yrotation
                                        End Site
                                        {
                                            OFFSET -2.578118 0.000000 0.000000
                                        }
                                    }
                                }
                            }
                            JOINT RightHandRing1
                            {
                                OFFSET -7.680175 -0.000018 -1.048128
                                CHANNELS 3 Zrotation Xrotation Yrotation
                                JOINT RightHandRing2
                                {
                                    OFFSET -4.517758 0.000001 0.000003
                                    CHANNELS 3 Zrotation Xrotation Yrotation
                                    JOINT RightHandRing3
                                    {
                                        OFFSET -2.258879 0.000000 0.000001
                                        CHANNELS 3 Zrotation Xrotation Yrotation
                                        End Site
                                        {
                                            OFFSET -2.148437 0.000000 0.000000
                                        }
                                    }
                                }
                            }
                            JOINT RightHandPinky1
                            {
                                OFFSET -7.228397 -0.000016 -3.162437
                                CHANNELS 3 Zrotation Xrotation Yrotation
                                JOINT RightHandPinky2
                                {
                                    OFFSET -3.614212 0.000007 0.000006
                                    CHANNELS 3 Zrotation Xrotation Yrotation
                                    JOINT RightHandPinky3
                                    {
                                        OFFSET -1.807093 -0.000013 -0.000008
                                        CHANNELS 3 Zrotation Xrotation Yrotation
                                        End Site
                                        {
                                            OFFSET -1.718745 0.000000 0.000000
                                        }
                                    }
                                }
                            }
                        }
                    }
                }
            }
        }
    }
    JOINT LeftUpLeg
    {
        OFFSET 9.511075 -0.000004 -0.000016
        CHANNELS 3 Zrotation Xrotation Yrotation
        JOINT LeftLeg
        {
            OFFSET 0.000015 -43.875633 -0.000021
            CHANNELS 3 Zrotation Xrotation Yrotation
            JOINT LeftFoot
            {
                OFFSET 0.000011 -35.354156 -0.000016
                CHANNELS 3 Zrotation Xrotation Yrotation
                JOINT LeftToeBase
                {
                    OFFSET -0.000005 -6.182192 14.266607
                    CHANNELS 3 Zrotation Xrotation Yrotation
                    End Site
                    {
                        OFFSET 0.000000 0.000000 3.804428
                    }
                }
            }
        }
    }
    JOINT RightUpLeg
    {
        OFFSET -9.511075 0.000004 0.000016
        CHANNELS 3 Zrotation Xrotation Yrotation
        JOINT RightLeg
        {
            OFFSET 0.000010 -43.875641 -0.000015
            CHANNELS 3 Zrotation Xrotation Yrotation
            JOINT RightFoot
            {
                OFFSET -0.000006 -35.354149 0.000003
                CHANNELS 3 Zrotation Xrotation Yrotation
                JOINT RightToeBase
                {
                    OFFSET 0.000008 -6.182206 14.266582
                    CHANNELS 3 Zrotation Xrotation Yrotation
                    End Site
                    {
                        OFFSET 0.000000 0.000000 3.804428
                    }
                }
            }
        }
    }
}
MOTION
Frames:    4
Frame Time:    0.002778
36.156250    92.891273    600.335388    4.967581    -6.432161    -154.753510    -0.257284    4.460979    1.459542    -1.286420    4.459899    1.539576    4.219190    0.924041    -18.425171    4.219191    0.924036    -18.425171    1.996217    -2.027416    0.039642    -55.032364    7.816885    -19.673643    -14.473847    16.531286    -90.686684    29.240740    9.743766    17.120050    47.448219    38.866440    -34.355034    -35.000000    -0.000004    -0.000005    -0.000000    0.000000    -0.000000    0.000000    9.999998    -0.000003    -0.000000    0.000000    -0.000000    -0.000000    0.000000    -0.000000    -0.000000    0.000000    -0.000000    -0.000000    0.000000    -0.000000    -0.000000    0.000000    -0.000000    -0.000000    0.000000    -0.000000    -0.000000    0.000000    -0.000000    -0.000000    0.000000    -0.000000    0.000000    -9.999994    0.000002    -0.000000    0.000000    -0.000000    -0.000000    0.000000    -0.000000    -6.100160    3.007787    1.538177    62.956448    -0.490846    12.545422    0.545491    26.309469    83.757271    -59.946339    18.614811    -10.436022    -47.448219    38.866440    34.355038    35.000000    0.000000    0.000004    -0.000000    0.000000    -0.000000    -0.000000    10.000001    0.000004    -0.000000    0.000000    -0.000000    -0.000000    0.000000    -0.000000    -0.000000    0.000000    -0.000000    -0.000000    0.000000    -0.000000    -0.000000    0.000000    -0.000000    -0.000000    0.000000    -0.000000    -0.000000    0.000000    -0.000000    -0.000000    0.000000    -0.000000    -0.000001    -9.999995    0.000005    -0.000000    0.000000    -0.000000    -0.000000    0.000000    -0.000000    15.086698    -16.641903    -0.419341    0.000001    17.948095    0.000003    -11.886871    -10.263083    1.589174    0.000000    -0.226629    0.000002    -10.495529    -18.751825    -2.516466    -0.000002    29.293442    0.000001    14.270127    -14.250478    -16.602264    0.000000    -3.103992    -0.000000    
36.125973    92.898651    600.353760    4.967430    -6.436474    -154.786972    -0.259752    4.458612    1.439096    -1.298763    4.457518    1.519860    4.215555    0.931671    -18.390854    4.215553    0.931668    -18.390854    1.960906    -2.050426    0.029609    -54.942146    7.839559    -19.746325    -14.301147    16.503260    -90.701828    29.400713    9.764330    17.044682    47.448215    38.866447    -34.355038    -35.000000    -0.000001    -0.000003    -0.000000    0.000000    -0.000000    -0.000004    10.000010    0.000004    -0.000000    0.000000    -0.000000    -0.000000    0.000000    -0.000000    -0.000000    0.000000    -0.000000    -0.000000    0.000000    -0.000000    -0.000000    0.000000    -0.000000    -0.000000    0.000000    -0.000000    -0.000000    0.000000    -0.000000    -0.000000    0.000000    -0.000000    0.000001    -9.999992    0.000007    -0.000000    0.000000    -0.000000    -0.000000    0.000000    -0.000000    -6.158573    3.038330    1.529402    63.064735    -0.273258    12.320107    0.618107    26.314381    83.709709    -59.955059    18.557762    -10.402846    -47.448231    38.866428    34.355049    34.999992    0.000000    0.000003    -0.000000    0.000000    -0.000000    -0.000001    10.000003    0.000008    -0.000000    0.000000    -0.000000    -0.000000    0.000000    -0.000000    -0.000000    0.000000    -0.000000    -0.000000    0.000000    -0.000000    -0.000000    0.000000    -0.000000    -0.000000    0.000000    -0.000000    -0.000000    0.000000    -0.000000    -0.000000    0.000000    -0.000000    0.000004    -9.999993    0.000010    -0.000000    0.000000    -0.000000    -0.000000    0.000000    -0.000000    15.068618    -16.603069    -0.415371    0.000000    17.881601    0.000003    -11.909140    -10.261521    1.615600    0.000000    -0.237507    0.000001    -10.510912    -18.710848    -2.500443    0.000000    29.177410    -0.000001    14.276301    -14.210630    -16.597761    0.000000    -3.113638    0.000000    
36.096180    92.905647    600.370911    4.968341    -6.439989    -154.821915    -0.262214    4.456296    1.421089    -1.311067    4.455182    1.502574    4.214182    0.939557    -18.357431    4.214182    0.939562    -18.357430    1.928801    -2.071951    0.024655    -54.855270    7.869712    -19.821001    -14.140255    16.482613    -90.726402    29.562250    9.799307    16.992170    47.448208    38.866428    -34.355030    -35.000000    -0.000000    0.000003    -0.000000    0.000000    -0.000000    0.000007    10.000001    -0.000002    -0.000000    0.000000    -0.000000    -0.000000    0.000000    -0.000000    -0.000000    0.000000    -0.000000    -0.000000    0.000000    -0.000000    -0.000000    0.000000    -0.000000    -0.000000    0.000000    -0.000000    -0.000000    0.000000    -0.000000    -0.000000    0.000000    -0.000000    -0.000004    -10.000010    -0.000005    -0.000000    0.000000    -0.000000    -0.000000    0.000000    -0.000000    -6.219246    3.077591    1.517498    63.175266    -0.065431    12.092950    0.746319    26.315886    83.620453    -59.971382    18.528337    -10.381623    -47.448219    38.866428    34.355042    35.000004    -0.000005    -0.000004    -0.000000    0.000000    -0.000000    -0.000001    10.000001    -0.000004    -0.000000    0.000000    -0.000000    -0.000000    0.000000    -0.000000    -0.000000    0.000000    -0.000000    -0.000000    0.000000    -0.000000    -0.000000    0.000000    -0.000000    -0.000000    0.000000    -0.000000    -0.000000    0.000000    -0.000000    -0.000000    0.000000    -0.000000    -0.000001    -9.999999    -0.000007    -0.000000    0.000000    -0.000000    -0.000000    0.000000    -0.000000    15.051425    -16.565937    -0.412076    0.000001    17.817068    0.000002    -11.929704    -10.258146    1.630777    0.000000    -0.237753    -0.000000    -10.523212    -18.672297    -2.481748    0.000004    29.067715    -0.000003    14.284394    -14.173465    -16.594713    0.000000    -3.123789    0.000000    
36.067215    92.912262    600.390076    4.969851    -6.443961    -154.855927    -0.264604    4.454023    1.403070    -1.323020    4.452889    1.485258    4.215534    0.950062    -18.326168    4.215535    0.950064    -18.326172    1.902089    -2.086579    0.018343    -54.766640    7.916483    -19.899740    -14.029973    16.480696    -90.743401    29.674070    9.830667    16.967319    47.448212    38.866428    -34.355034    -34.999996    -0.000003    -0.000001    -0.000000    0.000000    -0.000000    0.000000    9.999998    -0.000003    -0.000000    0.000000    -0.000000    -0.000000    0.000000    -0.000000    -0.000000    0.000000    -0.000000    -0.000000    0.000000    -0.000000    -0.000000    0.000000    -0.000000    -0.000000    0.000000    -0.000000    -0.000000    0.000000    -0.000000    -0.000000    0.000000    -0.000000    -0.000007    -10.000001    -0.000001    -0.000000    0.000000    -0.000000    -0.000000    0.000000    -0.000000    -6.281846    3.109015    1.506256    63.283867    0.144559    11.871675    0.891266    26.308830    83.550858    -59.987263    18.531744    -10.378379    -47.448208    38.866421    34.355030    34.999992    -0.000002    -0.000002    -0.000000    0.000000    -0.000000    0.000003    10.000001    0.000004    -0.000000    0.000000    -0.000000    -0.000000    0.000000    -0.000000    -0.000000    0.000000    -0.000000    -0.000000    0.000000    -0.000000    -0.000000    0.000000    -0.000000    -0.000000    0.000000    -0.000000    -0.000000    0.000000    -0.000000    -0.000000    0.000000    -0.000000    -0.000002    -10.000001    0.000002    -0.000000    0.000000    -0.000000    -0.000000    0.000000    -0.000000    15.036817    -16.531122    -0.402342    0.000001    17.760117    0.000004    -11.955899    -10.267372    1.658427    0.000000    -0.249015    0.000003    -10.536005    -18.635490    -2.463688    -0.000002    28.958328    -0.000001    14.291000    -14.137966    -16.589296    -0.000000    -3.129412    -0.000000    
